<svg width="20" height="23" viewBox="0 0 20 23" fill="none" xmlns="http://www.w3.org/2000/svg">
<path d="M1.97738 9.10758C2.0176 8.60638 2.24513 8.13873 2.61465 7.79774C2.98417 7.45676 3.46857 7.26748 3.97138 7.26758H16.0294C16.5322 7.26748 17.0166 7.45676 17.3861 7.79774C17.7556 8.13873 17.9832 8.60638 18.0234 9.10758L18.8264 19.1076C18.8485 19.3828 18.8133 19.6596 18.7232 19.9205C18.6331 20.1815 18.4899 20.4209 18.3027 20.6238C18.1155 20.8267 17.8883 20.9887 17.6354 21.0995C17.3825 21.2103 17.1095 21.2675 16.8334 21.2676H3.16738C2.8913 21.2675 2.61823 21.2103 2.36536 21.0995C2.11249 20.9887 1.88529 20.8267 1.69808 20.6238C1.51086 20.4209 1.36768 20.1815 1.27755 19.9205C1.18742 19.6596 1.15229 19.3828 1.17438 19.1076L1.97738 9.10758V9.10758Z" stroke="white" stroke-width="2" stroke-linecap="round" stroke-linejoin="round"/>
<path d="M14 10.2676V5.26758C14 4.20671 13.5786 3.1893 12.8284 2.43915C12.0783 1.68901 11.0609 1.26758 10 1.26758C8.93913 1.26758 7.92172 1.68901 7.17157 2.43915C6.42143 3.1893 6 4.20671 6 5.26758V10.2676" stroke="white" stroke-width="2" stroke-linecap="round" stroke-linejoin="round"/>
</svg>
