<svg width="64" height="64" viewBox="0 0 64 64" fill="none" xmlns="http://www.w3.org/2000/svg">
<rect width="64" height="64" rx="20" fill="#2A5B45"/>
<path d="M33.6667 38.6673H34.6667H33.6667ZM33.6667 25.334H32.6667H33.6667ZM40.8215 24.1555L41.5286 23.4484L41.5286 23.4484L40.8215 24.1555ZM46.5118 29.8458L47.219 29.1387V29.1387L46.5118 29.8458ZM18.6667 21.334H32V19.334H18.6667V21.334ZM32.6667 22.0007V38.6673H34.6667V22.0007H32.6667ZM18 38.6673V22.0007H16V38.6673H18ZM20.3333 39.334H18.6667V41.334H20.3333V39.334ZM32 39.334H27V41.334H32V39.334ZM16 38.6673C16 40.1401 17.1939 41.334 18.6667 41.334V39.334C18.2985 39.334 18 39.0355 18 38.6673H16ZM32.6667 38.6673C32.6667 39.0355 32.3682 39.334 32 39.334V41.334C33.4728 41.334 34.6667 40.1401 34.6667 38.6673H32.6667ZM32 21.334C32.3682 21.334 32.6667 21.6325 32.6667 22.0007H34.6667C34.6667 20.5279 33.4728 19.334 32 19.334V21.334ZM18.6667 19.334C17.1939 19.334 16 20.5279 16 22.0007H18C18 21.6325 18.2985 21.334 18.6667 21.334V19.334ZM34.6667 38.6673L34.6667 25.334L32.6667 25.334L32.6667 38.6673L34.6667 38.6673ZM35.3333 24.6673H39.643V22.6673H35.3333V24.6673ZM46 31.0243V38.6673H48V31.0243H46ZM40.1144 24.8626L45.8047 30.5529L47.219 29.1387L41.5286 23.4484L40.1144 24.8626ZM37 39.334H35.3333V41.334H37V39.334ZM45.3333 39.334H43.6667V41.334H45.3333V39.334ZM48 31.0243C48 30.3171 47.719 29.6388 47.219 29.1387L45.8047 30.5529C45.9298 30.678 46 30.8475 46 31.0243H48ZM39.643 24.6673C39.8198 24.6673 39.9894 24.7376 40.1144 24.8626L41.5286 23.4484C41.0285 22.9483 40.3502 22.6673 39.643 22.6673V24.6673ZM32.6667 38.6673C32.6667 40.1401 33.8606 41.334 35.3333 41.334V39.334C34.9651 39.334 34.6667 39.0355 34.6667 38.6673H32.6667ZM46 38.6673C46 39.0355 45.7015 39.334 45.3333 39.334V41.334C46.8061 41.334 48 40.1401 48 38.6673H46ZM34.6667 25.334C34.6667 24.9658 34.9651 24.6673 35.3333 24.6673V22.6673C33.8606 22.6673 32.6667 23.8612 32.6667 25.334H34.6667ZM26 40.334C26 41.6226 24.9553 42.6673 23.6667 42.6673V44.6673C26.0599 44.6673 28 42.7272 28 40.334H26ZM23.6667 42.6673C22.378 42.6673 21.3333 41.6226 21.3333 40.334H19.3333C19.3333 42.7272 21.2734 44.6673 23.6667 44.6673V42.6673ZM21.3333 40.334C21.3333 39.0453 22.378 38.0007 23.6667 38.0007V36.0007C21.2734 36.0007 19.3333 37.9408 19.3333 40.334H21.3333ZM23.6667 38.0007C24.9553 38.0007 26 39.0453 26 40.334H28C28 37.9408 26.0599 36.0007 23.6667 36.0007V38.0007ZM42.6667 40.334C42.6667 41.6226 41.622 42.6673 40.3333 42.6673V44.6673C42.7266 44.6673 44.6667 42.7272 44.6667 40.334H42.6667ZM40.3333 42.6673C39.0447 42.6673 38 41.6226 38 40.334H36C36 42.7272 37.9401 44.6673 40.3333 44.6673V42.6673ZM38 40.334C38 39.0453 39.0447 38.0007 40.3333 38.0007V36.0007C37.9401 36.0007 36 37.9408 36 40.334H38ZM40.3333 38.0007C41.622 38.0007 42.6667 39.0453 42.6667 40.334H44.6667C44.6667 37.9408 42.7266 36.0007 40.3333 36.0007V38.0007Z" fill="white"/>
</svg>
