<svg width="21" height="21" viewBox="0 0 21 21" fill="none" xmlns="http://www.w3.org/2000/svg">
<path d="M1.95312 3.26758C1.95312 2.16301 2.84856 1.26758 3.95312 1.26758H7.23237C7.6628 1.26758 8.04494 1.54301 8.18105 1.95135L9.67886 6.44479C9.83623 6.9169 9.6225 7.43289 9.17739 7.65544L6.92013 8.78408C8.02237 11.2288 9.99191 13.1983 12.4366 14.3006L13.5653 12.0433C13.7878 11.5982 14.3038 11.3845 14.7759 11.5418L19.2694 13.0397C19.6777 13.1758 19.9531 13.5579 19.9531 13.9883V17.2676C19.9531 18.3721 19.0577 19.2676 17.9531 19.2676H16.9531C8.66885 19.2676 1.95312 12.5518 1.95312 4.26758V3.26758Z" stroke="white" stroke-width="2" stroke-linecap="round" stroke-linejoin="round"/>
</svg>
