<svg width="21" height="26" viewBox="0 0 21 26" fill="none" xmlns="http://www.w3.org/2000/svg">
<path d="M0.332031 11.1737V18.4772C0.332031 20.4897 1.02112 22.2019 2.39928 23.6139C3.77745 25.026 5.44868 25.732 7.41296 25.732H9.45645C11.2306 25.732 12.7751 25.1396 14.0899 23.9548C15.4047 22.77 16.1889 21.2849 16.4423 19.4997H16.5374C17.6463 19.4997 18.6046 19.0939 19.4125 18.2824C20.2204 17.4709 20.6244 16.4971 20.6244 15.361C20.6244 14.2249 20.2204 13.243 19.4125 12.4153C18.6046 11.5875 17.6463 11.1737 16.5374 11.1737C16.5374 10.6219 16.3394 10.1431 15.9433 9.73733C15.5473 9.33158 15.08 9.12871 14.5414 9.12871H2.37552C1.80524 9.12871 1.32209 9.33158 0.926069 9.73733C0.530044 10.1431 0.332031 10.6219 0.332031 11.1737ZM16.5374 13.2673C17.1077 13.2673 17.5908 13.4702 17.9868 13.876C18.3829 14.2817 18.5809 14.7767 18.5809 15.361C18.5809 15.9128 18.3829 16.3916 17.9868 16.7974C17.5908 17.2031 17.1077 17.406 16.5374 17.406V13.2673ZM14.5414 18.4772C14.5414 19.9054 14.0503 21.1226 13.0682 22.1289C12.0861 23.1352 10.8821 23.6383 9.45645 23.6383H7.41296C6.01895 23.6383 4.83088 23.1352 3.84873 22.1289C2.86659 21.1226 2.37552 19.9054 2.37552 18.4772V11.1737H14.5414V18.4772ZM7.22287 2.4582C7.53969 1.84146 7.44464 1.35456 6.93773 0.9975C6.39914 0.640441 5.95559 0.72159 5.60709 1.24095L5.08433 1.92261C4.51406 2.86394 4.28436 3.87832 4.39525 4.96572C4.50614 6.05313 4.94176 6.98635 5.70213 7.76539C5.89222 7.96015 6.12984 8.05753 6.41498 8.05753C6.70012 8.05753 6.93773 7.96015 7.12782 7.76539C7.53969 7.27849 7.53969 6.79159 7.12782 6.3047C6.71596 5.88272 6.47834 5.37147 6.41498 4.77096C6.35161 4.17046 6.49418 3.61052 6.84268 3.09116L7.22287 2.4582ZM10.7871 5.03876L11.1673 4.64924C11.6108 4.1948 11.6425 3.7079 11.2623 3.18854C11.1356 2.99378 10.9217 2.88829 10.6208 2.87206C10.3198 2.85583 10.0742 2.92886 9.88416 3.09116L9.45645 3.48068C8.75945 4.09742 8.45847 4.82777 8.55351 5.67173C8.64856 6.58061 9.15547 7.31095 10.0742 7.86277C10.1376 7.99261 10.2643 8.05753 10.4544 8.05753C10.8346 8.05753 11.1514 7.89523 11.4049 7.57063C11.7534 6.95389 11.6108 6.467 10.9772 6.10994C10.6287 5.88272 10.4544 5.70419 10.4544 5.57435L10.7871 5.03876Z" fill="white"/>
</svg>
